<svg xmlns="http://www.w3.org/2000/svg" viewBox="0 0 1000 600">
  <!-- خلفية رئيسية: كراج حديث بإضاءة زرقاء/رمادية -->
  <defs>
    <linearGradient id="floorGradient" x1="0%" y1="0%" x2="0%" y2="100%">
      <stop offset="0%" style="stop-color:#303545;stop-opacity:1" />
      <stop offset="100%" style="stop-color:#1a1f2e;stop-opacity:1" />
    </linearGradient>
    <linearGradient id="wallGradient" x1="0%" y1="0%" x2="0%" y2="100%">
      <stop offset="0%" style="stop-color:#3a4052;stop-opacity:1" />
      <stop offset="100%" style="stop-color:#262b3a;stop-opacity:1" />
    </linearGradient>
    <linearGradient id="screenGlow" x1="0%" y1="0%" x2="0%" y2="100%">
      <stop offset="0%" style="stop-color:#4287f5;stop-opacity:0.1" />
      <stop offset="100%" style="stop-color:#4287f5;stop-opacity:0.4" />
    </linearGradient>
    <radialGradient id="spotlight" cx="50%" cy="50%" r="50%" fx="50%" fy="50%">
      <stop offset="0%" style="stop-color:#a0d0ff;stop-opacity:0.4" />
      <stop offset="100%" style="stop-color:#4287f5;stop-opacity:0" />
    </radialGradient>
    <filter id="blueGlow" height="300%" width="300%" x="-75%" y="-75%">
      <feGaussianBlur stdDeviation="5" result="blur" />
      <feColorMatrix in="blur" type="matrix" values="0 0 0 0 0.2 0 0 0 0 0.4 0 0 0 0 0.8 0 0 0 1 0" result="glow" />
      <feMerge>
        <feMergeNode in="glow" />
        <feMergeNode in="SourceGraphic" />
      </feMerge>
    </filter>
    
    <!-- فلتر تأثير الحركة -->
    <filter id="motionBlur" x="-20%" y="-20%" width="140%" height="140%">
      <feGaussianBlur in="SourceGraphic" stdDeviation="2" />
      <feOffset dx="1" dy="1" />
    </filter>
    
    <!-- إضافة أنماط للأشكال المتحركة -->
    <pattern id="dataPattern" width="50" height="50" patternUnits="userSpaceOnUse">
      <circle cx="2" cy="2" r="1" fill="#4287f5" />
      <circle cx="10" cy="15" r="1" fill="#a0d0ff" />
      <circle cx="25" cy="8" r="1" fill="#4287f5" />
      <circle cx="30" cy="30" r="1" fill="#a0d0ff" />
      <circle cx="40" cy="20" r="1" fill="#4287f5" />
      <circle cx="45" cy="45" r="1" fill="#a0d0ff" />
    </pattern>
  </defs>

  <!-- خلفية الكراج -->
  <rect width="1000" height="600" fill="#1a1f2e" />
  <rect y="350" width="1000" height="250" fill="url(#floorGradient)" />
  <rect width="1000" height="350" fill="url(#wallGradient)" />
  
  <!-- إضاءة بقعية متوهجة -->
  <ellipse cx="500" cy="150" rx="450" ry="100" fill="#3a4c6e" fill-opacity="0.1" />
  <ellipse cx="500" cy="150" rx="300" ry="50" fill="#3a4c6e" fill-opacity="0.2" />
  <ellipse cx="700" cy="300" rx="200" ry="100" fill="url(#spotlight)" />
  <ellipse cx="270" cy="250" rx="150" ry="100" fill="url(#spotlight)" fill-opacity="0.3" />

  <!-- خطوط شبكة على الأرضية تعطي بعد وعمق -->
  <g stroke="#4287f5" stroke-width="0.5" opacity="0.3">
    <line x1="0" y1="400" x2="1000" y2="400" />
    <line x1="0" y1="450" x2="1000" y2="450" />
    <line x1="0" y1="500" x2="1000" y2="500" />
    <line x1="0" y1="550" x2="1000" y2="550" />
    <line x1="100" y1="350" x2="100" y2="600" />
    <line x1="200" y1="350" x2="200" y2="600" />
    <line x1="300" y1="350" x2="300" y2="600" />
    <line x1="400" y1="350" x2="400" y2="600" />
    <line x1="500" y1="350" x2="500" y2="600" />
    <line x1="600" y1="350" x2="600" y2="600" />
    <line x1="700" y1="350" x2="700" y2="600" />
    <line x1="800" y1="350" x2="800" y2="600" />
    <line x1="900" y1="350" x2="900" y2="600" />
  </g>

  <!-- جسيمات متحركة في الفضاء (تعطي إحساس بالحركة) -->
  <g fill="#4287f5" opacity="0.6">
    <circle cx="150" cy="120" r="1.5" />
    <circle cx="280" cy="90" r="1" />
    <circle cx="350" cy="180" r="2" />
    <circle cx="420" cy="70" r="1" />
    <circle cx="520" cy="100" r="1.5" />
    <circle cx="600" cy="200" r="1" />
    <circle cx="700" cy="130" r="2" />
    <circle cx="780" cy="170" r="1" />
    <circle cx="850" cy="85" r="1.5" />
    <circle cx="950" cy="210" r="1" />
  </g>

  <!-- منطقة بيانات عائمة في الفضاء -->
  <g transform="translate(250, 100)">
    <rect width="150" height="80" fill="url(#dataPattern)" fill-opacity="0.1" rx="5" />
    <text x="10" y="20" fill="#a0d0ff" font-family="monospace" font-size="8">SYS.DIAGNOSTIC RUNNING</text>
    <text x="10" y="35" fill="#a0d0ff" font-family="monospace" font-size="8">MODEL.TYPE: PRECISION GT</text>
    <text x="10" y="50" fill="#a0d0ff" font-family="monospace" font-size="8">ECU.VERSION: 4.23.9</text>
    <text x="10" y="65" fill="#a0d0ff" font-family="monospace" font-size="8">STATUS: OPTIMIZING...</text>
    
    <line x1="0" y1="80" x2="-20" y2="120" stroke="#4287f5" stroke-width="0.5" stroke-dasharray="2,2" />
  </g>
  
  <g transform="translate(600, 130)">
    <rect width="180" height="60" fill="url(#dataPattern)" fill-opacity="0.1" rx="5" />
    <text x="10" y="20" fill="#a0d0ff" font-family="monospace" font-size="8">DIAGNOSTIC CODE: P0132</text>
    <text x="10" y="35" fill="#a0d0ff" font-family="monospace" font-size="8">MODULE: ENGINE CONTROL</text>
    <text x="10" y="50" fill="#a0d0ff" font-family="monospace" font-size="8">RESOLUTION: IN PROGRESS 68%</text>
    
    <line x1="180" y1="30" x2="220" y2="10" stroke="#4287f5" stroke-width="0.5" stroke-dasharray="2,2" />
  </g>

  <!-- منصة فحص السيارة مع إضاءة -->
  <rect x="600" y="400" width="300" height="60" rx="5" fill="#2a3040" />
  <rect x="620" y="460" width="260" height="10" rx="2" fill="#232836" />
  <rect x="630" y="390" width="240" height="10" rx="2" fill="#4a5366" />
  
  <!-- إضافة إضاءة تحت المنصة -->
  <ellipse cx="750" cy="470" rx="120" ry="10" fill="#4287f5" fill-opacity="0.2" filter="url(#blueGlow)" />

  <!-- سيارة فاخرة (محسنة) -->
  <g transform="translate(650, 370)">
    <!-- جسم السيارة -->
    <path d="M200,30 C210,10 230,20 240,30 L250,40 C260,45 260,50 240,55 L40,55 C20,50 20,45 30,40 L40,30 C50,20 70,10 80,30 Z" fill="#2a2e3d" />
    <path d="M205,32 C215,14 228,22 236,30 L246,40 C254,44 254,49 236,54 L44,54 C26,49 26,44 34,40 L44,32 C52,22 68,14 76,32 Z" fill="#343e52" />
    
    <!-- مصابيح أمامية مع توهج -->
    <ellipse cx="240" cy="42" rx="8" ry="5" fill="#a0d0ff" filter="url(#blueGlow)" />
    <ellipse cx="40" cy="42" rx="8" ry="5" fill="#a0d0ff" filter="url(#blueGlow)" />
    
    <!-- شعاع ضوء من المصابيح (يعطي شعور بالإضاءة المنعكسة) -->
    <path d="M240,42 L260,30 L270,45 L240,42" fill="#a0d0ff" fill-opacity="0.2" filter="url(#motionBlur)" />
    <path d="M40,42 L20,30 L10,45 L40,42" fill="#a0d0ff" fill-opacity="0.2" filter="url(#motionBlur)" />
    
    <!-- عجلات تظهر وكأنها تدور -->
    <g transform="translate(60, 55)">
      <circle r="12" fill="#1a1d26" stroke="#3a4052" stroke-width="2" />
      <circle r="6" fill="#232836" />
      <line x1="-9" y1="0" x2="9" y2="0" stroke="#3a4052" stroke-width="1" transform="rotate(15)" />
      <line x1="-9" y1="0" x2="9" y2="0" stroke="#3a4052" stroke-width="1" transform="rotate(105)" />
    </g>
    <g transform="translate(220, 55)">
      <circle r="12" fill="#1a1d26" stroke="#3a4052" stroke-width="2" />
      <circle r="6" fill="#232836" />
      <line x1="-9" y1="0" x2="9" y2="0" stroke="#3a4052" stroke-width="1" transform="rotate(30)" />
      <line x1="-9" y1="0" x2="9" y2="0" stroke="#3a4052" stroke-width="1" transform="rotate(120)" />
    </g>
    
    <!-- نافذة مع انعكاس -->
    <path d="M80,30 L200,30 C190,20 90,20 80,30 Z" fill="#a0d0ff" fill-opacity="0.3" />
    <path d="M85,28 L195,28 C186,19 94,19 85,28 Z" fill="#a0d0ff" fill-opacity="0.1" />
  </g>

  <!-- أشعة ليزر سكانر فوق السيارة -->
  <line x1="600" y1="320" x2="750" y2="370" stroke="#4287f5" stroke-width="1" stroke-dasharray="1,2" opacity="0.7" />
  <line x1="750" y1="320" x2="750" y2="370" stroke="#4287f5" stroke-width="1" stroke-dasharray="1,2" opacity="0.7" />
  <line x1="900" y1="320" x2="750" y2="370" stroke="#4287f5" stroke-width="1" stroke-dasharray="1,2" opacity="0.7" />

  <!-- منطقة المكتب في المقدمة مع انعكاسات -->
  <rect x="100" y="400" width="340" height="120" rx="10" fill="#232836" />
  <rect x="110" y="410" width="320" height="100" rx="5" fill="#1a1d26" opacity="0.5" />
  <rect x="120" y="380" width="300" height="20" rx="5" fill="#2a3040" />

  <!-- مشرف إداري (محسن) -->
  <g transform="translate(270, 440)">
    <!-- رأس -->
    <circle cx="0" cy="-30" r="15" fill="#3a4052" />
    <!-- وجه مبسط -->
    <ellipse cx="-5" cy="-32" rx="2" ry="3" fill="#a0d0ff" opacity="0.7" />
    <ellipse cx="5" cy="-32" rx="2" ry="3" fill="#a0d0ff" opacity="0.7" />
    <path d="M-5,-25 C-2,-23 2,-23 5,-25" stroke="#a0d0ff" stroke-width="1" opacity="0.7" fill="none" />
    
    <!-- جسم -->
    <path d="M-15,0 C-15,-20 15,-20 15,0 L10,40 L-10,40 Z" fill="#2a3852" />
    <path d="M-12,-2 C-12,-18 12,-18 12,-2 L8,36 L-8,36 Z" fill="#3a4c6e" />
    
    <!-- ذراعان في حركة طباعة -->
    <path d="M-15,-5 C-22,0 -25,10 -20,15 C-15,20 -10,10 -10,0 Z" fill="#2a3852" />
    <path d="M15,-5 C22,0 28,15 18,15 C12,15 10,5 10,0 Z" fill="#2a3852" />
    
    <!-- انعكاس الشاشة على الوجه -->
    <path d="M-10,-35 L10,-35 L5,-25 L-5,-25 Z" fill="#4287f5" fill-opacity="0.1" />
  </g>

  <!-- مكتب رقمي بشاشات متعددة مع محتوى متحرك -->
  <g transform="translate(270, 400)">
    <!-- سطح المكتب -->
    <rect x="-120" y="-20" width="240" height="40" rx="5" fill="#1a1d26" />
    <rect x="-118" y="-18" width="236" height="36" rx="4" fill="#232836" />
    
    <!-- شاشة مركزية مع رسومات بيانية متحركة -->
    <rect x="-60" y="-90" width="120" height="70" rx="5" fill="#1a1d26" stroke="#3a4c6e" stroke-width="2" />
    <rect x="-55" y="-85" width="110" height="60" rx="3" fill="#0a1020" />
    
    <!-- محتوى الشاشة المركزية - رسم بياني -->
    <g transform="translate(-50, -60) scale(0.9)">
      <polyline points="0,0 10,-8 20,-5 30,-15 40,-10 50,-20 60,-12 70,-18 80,-5 90,-12" 
              fill="none" stroke="#4287f5" stroke-width="1.5" />
      <circle cx="30" cy="-15" r="3" fill="#a0d0ff" filter="url(#blueGlow)" />
      <text x="25" y="-22" fill="#a0d0ff" font-family="monospace" font-size="7">PEAK</text>
    </g>
    
    <!-- شاشات جانبية -->
    <g transform="rotate(-15) translate(-110, -60)">
      <rect width="80" height="50" rx="3" fill="#1a1d26" stroke="#3a4c6e" stroke-width="2" />
      <rect x="5" y="5" width="70" height="40" rx="2" fill="#0a1020" />
      
      <!-- محتوى الشاشة اليسرى - ترميز -->
      <g transform="translate(10, 12) scale(0.7)">
        <text x="0" y="0" fill="#4287f5" font-family="monospace" font-size="7">CAN_BUS:</text>
        <text x="0" y="10" fill="#a0d0ff" font-family="monospace" font-size="7">0xA48F1 CONNECTED</text>
        <text x="0" y="20" fill="#a0d0ff" font-family="monospace" font-size="7">ECU_1: STREAMING</text>
        <text x="0" y="30" fill="#4287f5" font-family="monospace" font-size="7">SYSTEM: SCANNING...</text>
        <rect x="70" y="-5" width="4" height="40" fill="#4287f5" opacity="0.3">
          <animate attributeName="opacity" values="0.3;0.8;0.3" dur="3s" repeatCount="indefinite" />
        </rect>
      </g>
    </g>
    
    <g transform="rotate(15) translate(40, -80)">
      <rect width="80" height="50" rx="3" fill="#1a1d26" stroke="#3a4c6e" stroke-width="2" />
      <rect x="5" y="5" width="70" height="40" rx="2" fill="#0a1020" />
      
      <!-- محتوى الشاشة اليمنى - تشخيص -->
      <g transform="translate(10, 12) scale(0.65)">
        <text x="0" y="0" fill="#4287f5" font-family="monospace" font-size="8">DIAGCODE: P0132</text>
        <text x="0" y="12" fill="#a0d0ff" font-family="monospace" font-size="8">SYS_READY: TRUE</text>
        <text x="0" y="24" fill="#a0d0ff" font-family="monospace" font-size="8">0xFFB6C: SCANNING</text>
        <text x="0" y="36" fill="#4287f5" font-family="monospace" font-size="8">PROGRESS: 78%</text>
        
        <rect x="0" y="30" width="60" height="2" fill="#232836" />
        <rect x="0" y="30" width="46" height="2" fill="#4287f5">
          <animate attributeName="width" values="1;46;46" dur="5s" repeatCount="indefinite" />
        </rect>
      </g>
    </g>
    
    <!-- لوحة مفاتيح مع إضاءة -->
    <rect x="-40" y="-10" width="80" height="20" rx="3" fill="#1a1d26" stroke="#3a4c6e" stroke-width="1" />
    <g fill="#4287f5" fill-opacity="0.3">
      <rect x="-35" y="-7" width="10" height="3" rx="1" />
      <rect x="-20" y="-7" width="10" height="3" rx="1" />
      <rect x="-5" y="-7" width="10" height="3" rx="1" />
      <rect x="10" y="-7" width="10" height="3" rx="1" />
      <rect x="25" y="-7" width="10" height="3" rx="1" />
    </g>
  </g>

  <!-- أدوات تشخيص وأذرع روبوتية في الخلفية مع حركة -->
  <g transform="translate(800, 300)">
    <!-- ذراع روبوتية في حركة فحص -->
    <path d="M0,0 L-20,-40 L-10,-80 L10,-90 L20,-80 L10,-40 Z" fill="#2a3040" stroke="#3a4c6e" stroke-width="2" />
    <circle cx="0" cy="0" r="10" fill="#1a1d26" stroke="#3a4c6e" stroke-width="2" />
    <circle cx="0" cy="-90" r="5" fill="#4287f5" fill-opacity="0.5" filter="url(#blueGlow)" />
    <line x1="0" y1="-90" x2="0" y2="-110" stroke="#4287f5" stroke-width="2" stroke-dasharray="1,2" opacity="0.6" />
    
    <!-- انعكاس أشعة ليزر من الذراع -->
    <path d="M0,-90 L-30,-110 L-15,-120 L0,-90" fill="#4287f5" fill-opacity="0.2" filter="url(#motionBlur)" />
  </g>

  <!-- معدات تشخيص نشطة -->
  <g transform="translate(500, 450)">
    <rect width="60" height="30" rx="5" fill="#1a1d26" stroke="#3a4c6e" stroke-width="1" />
    <circle cx="15" cy="15" r="8" fill="#4287f5" fill-opacity="0.5" filter="url(#blueGlow)">
      <animate attributeName="fill-opacity" values="0.5;0.8;0.5" dur="2s" repeatCount="indefinite" />
    </circle>
    <circle cx="45" cy="15" r="8" fill="#4287f5" fill-opacity="0.5" filter="url(#blueGlow)">
      <animate attributeName="fill-opacity" values="0.5;0.8;0.5" dur="3s" repeatCount="indefinite" />
    </circle>
    <line x1="10" y1="30" x2="10" y2="60" stroke="#3a4c6e" stroke-width="2" />
    <line x1="50" y1="30" x2="50" y2="60" stroke="#3a4c6e" stroke-width="2" />
  </g>

  <!-- أجهزة فحص إضافية متحركة -->
  <g transform="translate(850, 430)">
    <rect width="40" height="40" rx="3" fill="#232836" stroke="#3a4c6e" stroke-width="1" />
    <rect x="5" y="5" width="30" height="10" rx="1" fill="#1a1d26" />
    <rect x="8" y="8" width="24" height="4" fill="#4287f5" fill-opacity="0.3">
      <animate attributeName="width" values="5;24;5" dur="4s" repeatCount="indefinite" />
    </rect>
    <circle cx="20" cy="25" r="10" fill="#1a1d26" stroke="#3a4c6e" stroke-width="1" />
    <path d="M20,20 L20,30" stroke="#4287f5" stroke-width="1" />
    <path d="M15,25 L25,25" stroke="#4287f5" stroke-width="1" />
  </g>

  <!-- تمثيل بيانات لايف متدفقة وأكواد على الشاشات -->
  <g transform="translate(270, 320)">
    <!-- خطوط بيانات متحركة وإحصائيات -->
    <line x1="-40" y1="-5" x2="-20" y2="-15" stroke="#4287f5" stroke-width="1">
      <animate attributeName="stroke-opacity" values="1;0.3;1" dur="2s" repeatCount="indefinite" />
    </line>
    <line x1="-20" y1="-15" x2="0" y2="-5" stroke="#4287f5" stroke-width="1">
      <animate attributeName="stroke-opacity" values="0.3;1;0.3" dur="2s" repeatCount="indefinite" />
    </line>
    <line x1="0" y1="-5" x2="20" y2="-20" stroke="#4287f5" stroke-width="1">
      <animate attributeName="stroke-opacity" values="1;0.3;1" dur="2s" repeatCount="indefinite" />
    </line>
    <line x1="20" y1="-20" x2="40" y2="-10" stroke="#4287f5" stroke-width="1">
      <animate attributeName="stroke-opacity" values="0.3;1;0.3" dur="2s" repeatCount="indefinite" />
    </line>
  </g>

  <!-- جسيمات بيانات متحركة حول السيارة -->
  <g fill="#4287f5" opacity="0.7">
    <circle cx="650" cy="350" r="2">
      <animate attributeName="cy" values="350;360;350" dur="3s" repeatCount="indefinite" />
    </circle>
    <circle cx="700" cy="360" r="1.5">
      <animate attributeName="cy" values="360;350;360" dur="2s" repeatCount="indefinite" />
    </circle>
    <circle cx="750" cy="355" r="2">
      <animate attributeName="cy" values="355;365;355" dur="4s" repeatCount="indefinite" />
    </circle>
    <circle cx="800" cy="365" r="1">
      <animate attributeName="cy" values="365;355;365" dur="3s" repeatCount="indefinite" />
    </circle>
  </g>

  <!-- إضافة توهج نظام تكنولوجيا متحرك -->
  <circle cx="750" cy="300" r="5" fill="#4287f5" fill-opacity="0.7" filter="url(#blueGlow)">
    <animate attributeName="r" values="5;6;5" dur="2s" repeatCount="indefinite" />
  </circle>
  <circle cx="780" cy="320" r="3" fill="#4287f5" fill-opacity="0.7" filter="url(#blueGlow)">
    <animate attributeName="r" values="3;4;3" dur="3s" repeatCount="indefinite" />
  </circle>
  <circle cx="500" cy="200" r="4" fill="#4287f5" fill-opacity="0.7" filter="url(#blueGlow)">
    <animate attributeName="r" values="4;5;4" dur="2.5s" repeatCount="indefinite" />
  </circle>
  <circle cx="200" cy="250" r="3" fill="#4287f5" fill-opacity="0.7" filter="url(#blueGlow)">
    <animate attributeName="r" values="3;4;3" dur="2s" repeatCount="indefinite" />
  </circle>
  
  <!-- خطوط بيانات متدفقة في الهواء -->
  <path d="M350,200 C400,180 450,220 500,200 C550,180 600,220 650,200" 
        fill="none" stroke="#4287f5" stroke-width="1" stroke-dasharray="5,5" opacity="0.5">
    <animate attributeName="stroke-dashoffset" values="0;10" dur="1s" repeatCount="indefinite" />
  </path>
  <path d="M200,250 C300,270 350,220 450,230 C550,240 600,210 700,230" 
        fill="none" stroke="#4287f5" stroke-width="1" stroke-dasharray="5,5" opacity="0.5">
    <animate attributeName="stroke-dashoffset" values="0;-10" dur="1.5s" repeatCount="indefinite" />
  </path>
</svg>